<mxfile host="app.diagrams.net" modified="2024-05-06T01:56:14.208Z" agent="Mozilla/5.0 (Windows NT 10.0; Win64; x64) AppleWebKit/537.36 (KHTML, like Gecko) Chrome/124.0.0.0 Safari/537.36" etag="WILeHnAh2Y3Ri4xAdyfT" version="24.3.1" type="github">
  <diagram name="PÃ¡gina-1" id="b2jRFqUZYnmrYUsRm_Oo">
    <mxGraphModel dx="1050" dy="557" grid="1" gridSize="10" guides="1" tooltips="1" connect="1" arrows="1" fold="1" page="1" pageScale="1" pageWidth="827" pageHeight="1169" math="0" shadow="0">
      <root>
        <mxCell id="0" />
        <mxCell id="1" parent="0" />
        <mxCell id="GpkmJ0ViW7OxgPSnwF09-13" style="edgeStyle=orthogonalEdgeStyle;rounded=0;orthogonalLoop=1;jettySize=auto;html=1;exitX=0.5;exitY=1;exitDx=0;exitDy=0;" edge="1" parent="1" source="GpkmJ0ViW7OxgPSnwF09-1" target="GpkmJ0ViW7OxgPSnwF09-12">
          <mxGeometry relative="1" as="geometry" />
        </mxCell>
        <mxCell id="GpkmJ0ViW7OxgPSnwF09-1" value="Inicio" style="ellipse;whiteSpace=wrap;html=1;" vertex="1" parent="1">
          <mxGeometry x="320" width="90" height="70" as="geometry" />
        </mxCell>
        <mxCell id="GpkmJ0ViW7OxgPSnwF09-15" style="edgeStyle=orthogonalEdgeStyle;rounded=0;orthogonalLoop=1;jettySize=auto;html=1;exitX=0.5;exitY=1;exitDx=0;exitDy=0;entryX=0.5;entryY=0;entryDx=0;entryDy=0;" edge="1" parent="1" source="GpkmJ0ViW7OxgPSnwF09-12" target="GpkmJ0ViW7OxgPSnwF09-14">
          <mxGeometry relative="1" as="geometry" />
        </mxCell>
        <mxCell id="GpkmJ0ViW7OxgPSnwF09-12" value="Declarar min" style="shape=parallelogram;perimeter=parallelogramPerimeter;whiteSpace=wrap;html=1;fixedSize=1;" vertex="1" parent="1">
          <mxGeometry x="305" y="100" width="120" height="60" as="geometry" />
        </mxCell>
        <mxCell id="GpkmJ0ViW7OxgPSnwF09-20" style="edgeStyle=orthogonalEdgeStyle;rounded=0;orthogonalLoop=1;jettySize=auto;html=1;exitX=1;exitY=0.5;exitDx=0;exitDy=0;entryX=0;entryY=0.5;entryDx=0;entryDy=0;" edge="1" parent="1" source="GpkmJ0ViW7OxgPSnwF09-14" target="GpkmJ0ViW7OxgPSnwF09-18">
          <mxGeometry relative="1" as="geometry" />
        </mxCell>
        <mxCell id="GpkmJ0ViW7OxgPSnwF09-21" style="edgeStyle=orthogonalEdgeStyle;rounded=0;orthogonalLoop=1;jettySize=auto;html=1;exitX=0;exitY=0.5;exitDx=0;exitDy=0;entryX=1;entryY=0.5;entryDx=0;entryDy=0;" edge="1" parent="1" source="GpkmJ0ViW7OxgPSnwF09-14" target="GpkmJ0ViW7OxgPSnwF09-19">
          <mxGeometry relative="1" as="geometry" />
        </mxCell>
        <mxCell id="GpkmJ0ViW7OxgPSnwF09-14" value="s1 &amp;lt; s2" style="rhombus;whiteSpace=wrap;html=1;" vertex="1" parent="1">
          <mxGeometry x="320" y="190" width="80" height="90" as="geometry" />
        </mxCell>
        <mxCell id="GpkmJ0ViW7OxgPSnwF09-27" style="edgeStyle=orthogonalEdgeStyle;rounded=0;orthogonalLoop=1;jettySize=auto;html=1;exitX=0.5;exitY=1;exitDx=0;exitDy=0;entryX=1;entryY=0;entryDx=0;entryDy=0;" edge="1" parent="1" source="GpkmJ0ViW7OxgPSnwF09-18" target="GpkmJ0ViW7OxgPSnwF09-24">
          <mxGeometry relative="1" as="geometry" />
        </mxCell>
        <mxCell id="GpkmJ0ViW7OxgPSnwF09-18" value="Asignar s1 a min" style="shape=parallelogram;perimeter=parallelogramPerimeter;whiteSpace=wrap;html=1;fixedSize=1;" vertex="1" parent="1">
          <mxGeometry x="480" y="210" width="120" height="60" as="geometry" />
        </mxCell>
        <mxCell id="GpkmJ0ViW7OxgPSnwF09-26" style="edgeStyle=orthogonalEdgeStyle;rounded=0;orthogonalLoop=1;jettySize=auto;html=1;exitX=0.5;exitY=1;exitDx=0;exitDy=0;entryX=0;entryY=0;entryDx=0;entryDy=0;" edge="1" parent="1" source="GpkmJ0ViW7OxgPSnwF09-19" target="GpkmJ0ViW7OxgPSnwF09-24">
          <mxGeometry relative="1" as="geometry" />
        </mxCell>
        <mxCell id="GpkmJ0ViW7OxgPSnwF09-19" value="Asignar s2 a min" style="shape=parallelogram;perimeter=parallelogramPerimeter;whiteSpace=wrap;html=1;fixedSize=1;" vertex="1" parent="1">
          <mxGeometry x="150" y="205" width="120" height="60" as="geometry" />
        </mxCell>
        <mxCell id="GpkmJ0ViW7OxgPSnwF09-22" value="Si" style="text;html=1;align=center;verticalAlign=middle;resizable=0;points=[];autosize=1;strokeColor=none;fillColor=none;" vertex="1" parent="1">
          <mxGeometry x="425" y="198" width="30" height="30" as="geometry" />
        </mxCell>
        <mxCell id="GpkmJ0ViW7OxgPSnwF09-23" value="No" style="text;html=1;align=center;verticalAlign=middle;resizable=0;points=[];autosize=1;strokeColor=none;fillColor=none;" vertex="1" parent="1">
          <mxGeometry x="280" y="198" width="40" height="30" as="geometry" />
        </mxCell>
        <mxCell id="GpkmJ0ViW7OxgPSnwF09-30" style="edgeStyle=orthogonalEdgeStyle;rounded=0;orthogonalLoop=1;jettySize=auto;html=1;exitX=1;exitY=0.5;exitDx=0;exitDy=0;" edge="1" parent="1" source="GpkmJ0ViW7OxgPSnwF09-24" target="GpkmJ0ViW7OxgPSnwF09-28">
          <mxGeometry relative="1" as="geometry" />
        </mxCell>
        <mxCell id="GpkmJ0ViW7OxgPSnwF09-31" style="edgeStyle=orthogonalEdgeStyle;rounded=0;orthogonalLoop=1;jettySize=auto;html=1;exitX=0;exitY=0.5;exitDx=0;exitDy=0;entryX=1;entryY=0.5;entryDx=0;entryDy=0;" edge="1" parent="1" source="GpkmJ0ViW7OxgPSnwF09-24" target="GpkmJ0ViW7OxgPSnwF09-29">
          <mxGeometry relative="1" as="geometry" />
        </mxCell>
        <mxCell id="GpkmJ0ViW7OxgPSnwF09-24" value="min &amp;lt; s3" style="rhombus;whiteSpace=wrap;html=1;" vertex="1" parent="1">
          <mxGeometry x="320" y="370" width="80" height="80" as="geometry" />
        </mxCell>
        <mxCell id="GpkmJ0ViW7OxgPSnwF09-36" style="edgeStyle=orthogonalEdgeStyle;rounded=0;orthogonalLoop=1;jettySize=auto;html=1;exitX=0.5;exitY=1;exitDx=0;exitDy=0;entryX=1;entryY=0.5;entryDx=0;entryDy=0;" edge="1" parent="1" source="GpkmJ0ViW7OxgPSnwF09-28" target="GpkmJ0ViW7OxgPSnwF09-34">
          <mxGeometry relative="1" as="geometry" />
        </mxCell>
        <mxCell id="GpkmJ0ViW7OxgPSnwF09-28" value="Mantener min" style="shape=parallelogram;perimeter=parallelogramPerimeter;whiteSpace=wrap;html=1;fixedSize=1;" vertex="1" parent="1">
          <mxGeometry x="455" y="420" width="120" height="60" as="geometry" />
        </mxCell>
        <mxCell id="GpkmJ0ViW7OxgPSnwF09-35" style="edgeStyle=orthogonalEdgeStyle;rounded=0;orthogonalLoop=1;jettySize=auto;html=1;exitX=0.5;exitY=1;exitDx=0;exitDy=0;entryX=0;entryY=0.5;entryDx=0;entryDy=0;" edge="1" parent="1" source="GpkmJ0ViW7OxgPSnwF09-29" target="GpkmJ0ViW7OxgPSnwF09-34">
          <mxGeometry relative="1" as="geometry" />
        </mxCell>
        <mxCell id="GpkmJ0ViW7OxgPSnwF09-29" value="Asignar s3 a min" style="shape=parallelogram;perimeter=parallelogramPerimeter;whiteSpace=wrap;html=1;fixedSize=1;" vertex="1" parent="1">
          <mxGeometry x="130" y="420" width="120" height="60" as="geometry" />
        </mxCell>
        <mxCell id="GpkmJ0ViW7OxgPSnwF09-32" value="Si" style="text;html=1;align=center;verticalAlign=middle;resizable=0;points=[];autosize=1;strokeColor=none;fillColor=none;" vertex="1" parent="1">
          <mxGeometry x="425" y="350" width="30" height="30" as="geometry" />
        </mxCell>
        <mxCell id="GpkmJ0ViW7OxgPSnwF09-33" value="No" style="text;html=1;align=center;verticalAlign=middle;resizable=0;points=[];autosize=1;strokeColor=none;fillColor=none;" vertex="1" parent="1">
          <mxGeometry x="280" y="350" width="40" height="30" as="geometry" />
        </mxCell>
        <mxCell id="GpkmJ0ViW7OxgPSnwF09-41" style="edgeStyle=orthogonalEdgeStyle;rounded=0;orthogonalLoop=1;jettySize=auto;html=1;exitX=0.5;exitY=1;exitDx=0;exitDy=0;entryX=0.5;entryY=0;entryDx=0;entryDy=0;" edge="1" parent="1" source="GpkmJ0ViW7OxgPSnwF09-34" target="GpkmJ0ViW7OxgPSnwF09-40">
          <mxGeometry relative="1" as="geometry" />
        </mxCell>
        <mxCell id="GpkmJ0ViW7OxgPSnwF09-34" value="Imprimir min" style="rounded=0;whiteSpace=wrap;html=1;" vertex="1" parent="1">
          <mxGeometry x="294" y="510" width="120" height="60" as="geometry" />
        </mxCell>
        <mxCell id="GpkmJ0ViW7OxgPSnwF09-40" value="Fin" style="ellipse;whiteSpace=wrap;html=1;" vertex="1" parent="1">
          <mxGeometry x="309" y="600" width="90" height="50" as="geometry" />
        </mxCell>
      </root>
    </mxGraphModel>
  </diagram>
</mxfile>
